<?xml version="1.0" ?><svg xmlns="http://www.w3.org/2000/svg" xmlns:xlink="http://www.w3.org/1999/xlink" version="1.1" viewBox="0 0 512 512" style="enable-background:new 0 0 512 512;" xml:space="preserve"><g id="_x31_5_x2C__vinyl_x2C__music_and_multimedia_x2C__retro_x2C__vintage_x2C__music_x2C__play"><g><path d="M471,118.744V11c0-5.523-4.478-10-10-10s-10,4.477-10,10v80.616C404.24,36.19,334.269,1,256,1C115.049,1,1,115.07,1,256    c0,140.95,114.07,255,255,255c140.951,0,255-114.07,255-255C511,205.447,496.324,158.356,471,118.744z M256,491    C126.421,491,21,385.58,21,256S126.421,21,256,21c81.11,0,152.751,41.307,195,103.987v131.87l-34.938,34.938l-10.608-10.608    c-3.905-3.904-10.235-3.905-14.143,0l-42.427,42.426c-3.904,3.905-3.903,10.239,0,14.143l10.607,10.607l-7.071,7.071    c-3.905,3.905-3.905,10.237,0,14.142c3.906,3.905,10.236,3.905,14.143,0l7.07-7.07l10.606,10.607    c3.906,3.905,10.236,3.904,14.143,0l42.427-42.426c3.904-3.905,3.903-10.239,0-14.143l-10.604-10.604l37.867-37.867    c1.875-1.875,2.929-4.419,2.929-7.071v-99.816c12.847,29.017,20,61.095,20,94.816C491,385.58,385.579,491,256,491z"/><path d="M256,166c-49.626,0-90,40.374-90,90s40.374,90,90,90s90-40.374,90-90S305.626,166,256,166z M256,291.556    c-19.605,0-35.556-15.95-35.556-35.556s15.95-35.556,35.556-35.556s35.556,15.95,35.556,35.556S275.605,291.556,256,291.556z"/></g></g><g id="Layer_1"/></svg>